HIERARCHY
ROOT joint_Root
{
	OFFSET 0.0 0.0 0.0
	CHANNELS 6 Xposition Yposition Zposition Zrotation Xrotation Yrotation 
	JOINT Hips
	{
		OFFSET -17.1583 93.1646 452.98
		CHANNELS 6 Xposition Yposition Zposition Zrotation Xrotation Yrotation 
		JOINT Spine
		{
			OFFSET 15.7357 0.0 0.0
			CHANNELS 6 Xposition Yposition Zposition Zrotation Xrotation Yrotation 
			JOINT Chest
			{
				OFFSET 8.98455 -0.406207 0.0
				CHANNELS 6 Xposition Yposition Zposition Zrotation Xrotation Yrotation 
				JOINT Neck
				{
					OFFSET 16.3773 0.0 0.0
					CHANNELS 6 Xposition Yposition Zposition Zrotation Xrotation Yrotation 
					JOINT Head
					{
						OFFSET 6.45672 0.0 0.0
						CHANNELS 6 Xposition Yposition Zposition Zrotation Xrotation Yrotation 
						End Site
						{
							OFFSET 0.0 0.0 0.0
						}
					}
				}
				JOINT Shoulder_L
				{
					OFFSET 12.9942 -0.242716 4.98039
					CHANNELS 6 Xposition Yposition Zposition Zrotation Xrotation Yrotation 
					JOINT UpperArm_L
					{
						OFFSET 5.34809 0.0 0.0
						CHANNELS 6 Xposition Yposition Zposition Zrotation Xrotation Yrotation 
						JOINT LowerArm_L
						{
							OFFSET 24.3286 1.87007e-05 0.0
							CHANNELS 6 Xposition Yposition Zposition Zrotation Xrotation Yrotation 
							JOINT Hand_L
							{
								OFFSET 22.2916 0.0 0.0
								CHANNELS 6 Xposition Yposition Zposition Zrotation Xrotation Yrotation 
								End Site
								{
									OFFSET 0.0 0.0 0.0
								}
							}
						}
					}
				}
				JOINT Shoulder_R
				{
					OFFSET 12.9945 -0.242716 -4.98039
					CHANNELS 6 Xposition Yposition Zposition Zrotation Xrotation Yrotation 
					JOINT UpperArm_R
					{
						OFFSET -5.34813 0.0 0.0
						CHANNELS 6 Xposition Yposition Zposition Zrotation Xrotation Yrotation 
						JOINT LowerArm_R
						{
							OFFSET -24.3289 0.000322201 0.0
							CHANNELS 6 Xposition Yposition Zposition Zrotation Xrotation Yrotation 
							JOINT Hand_R
							{
								OFFSET -22.2915 -0.000108084 0.0
								CHANNELS 6 Xposition Yposition Zposition Zrotation Xrotation Yrotation 
								End Site
								{
									OFFSET 0.0 0.0 0.0
								}
							}
						}
					}
				}
			}
		}
		JOINT UpperLeg_L
		{
			OFFSET -2.19248 -6.46944 0.0
			CHANNELS 6 Xposition Yposition Zposition Zrotation Xrotation Yrotation 
			JOINT LowerLeg_L
			{
				OFFSET 39.0811 0.0 -1.23785e-05
				CHANNELS 6 Xposition Yposition Zposition Zrotation Xrotation Yrotation 
				JOINT Foot_L
				{
					OFFSET 40.9854 0.0 -1.26872e-05
					CHANNELS 6 Xposition Yposition Zposition Zrotation Xrotation Yrotation 
					JOINT Toes_L
					{
						OFFSET 11.7543 0.0 0.0
						CHANNELS 6 Xposition Yposition Zposition Zrotation Xrotation Yrotation 
						End Site
						{
							OFFSET 0.0 0.0 0.0
						}
					}
				}
			}
		}
		JOINT UpperLeg_R
		{
			OFFSET -2.19251 6.46944 0.0
			CHANNELS 6 Xposition Yposition Zposition Zrotation Xrotation Yrotation 
			JOINT LowerLeg_R
			{
				OFFSET -39.0811 -0.00228153 -0.0401928
				CHANNELS 6 Xposition Yposition Zposition Zrotation Xrotation Yrotation 
				JOINT Foot_R
				{
					OFFSET -40.9854 0.0 0.0
					CHANNELS 6 Xposition Yposition Zposition Zrotation Xrotation Yrotation 
					JOINT Toes_R
					{
						OFFSET -11.7543 0.0 0.0
						CHANNELS 6 Xposition Yposition Zposition Zrotation Xrotation Yrotation 
						End Site
						{
							OFFSET 0.0 0.0 0.0
						}
					}
				}
			}
		}
	}
}
MOTION
Frames:	7
Frame Time:	0.0333333
0.000000 0.000000 0.000000 0.000000 0.000000 -0.000000 -1.648710 85.288900 56.711300 -88.345600 0.147571 169.882000 15.735700 0.000005 -0.000001 104.082000 83.012600 -102.708000 8.984550 -0.406207 -0.000000 5.757610 3.367550 2.574730 16.377300 -0.000001 -0.000001 -7.246180 1.770480 -0.376506 6.456720 -0.000001 -0.000000 -14.693800 0.668872 -2.474550 12.994200 -0.242716 4.980390 -92.855200 7.975750 -70.229500 5.348090 -0.000007 -0.000001 -46.634100 -12.042300 9.758340 24.328600 0.000019 0.000005 4.732700 40.110600 -7.322000 22.291600 -0.000001 0.000005 -5.567660 4.884680 9.677650 12.994500 -0.242716 -4.980390 89.131300 3.145740 -74.556700 -5.348130 -0.000001 -0.000004 -53.551100 5.411560 -7.848270 -24.328900 0.000322 -0.000009 -0.779238 -0.842428 -42.602700 -22.291500 -0.000108 -0.000004 12.366900 5.486610 -5.947790 -2.192480 -6.469440 -0.000000 -176.942000 -1.213210 -52.588000 39.081100 -0.000007 -0.000012 -0.160099 -0.049114 107.059000 40.985400 -0.000006 -0.000013 -4.331690 -3.168380 -56.655300 11.754300 -0.000000 0.000003 0.002444 0.072791 -13.624500 -2.192510 6.469440 -0.000001 -175.899000 10.120200 169.917000 -39.081100 -0.002282 -0.040193 -0.045366 0.051277 43.485700 -40.985400 0.000008 0.000006 -7.304610 2.881450 -84.493600 -11.754300 -0.000006 -0.000006 -0.003469 -0.045802 -18.436000
0.000000 0.000000 0.000000 0.000000 0.000000 -0.000000 -2.745480 88.533500 46.498200 -91.951200 2.852600 165.695000 15.735700 0.000005 -0.000001 118.215000 83.959900 -118.840000 8.984550 -0.406207 -0.000000 2.923440 5.732220 -1.396400 16.377300 -0.000001 -0.000001 -7.570590 1.146100 0.392286 6.456720 -0.000001 -0.000000 -13.914700 -1.274650 -1.558230 12.994200 -0.242716 4.980390 -92.354000 6.445590 -69.887700 5.348090 -0.000007 -0.000001 -40.428500 -16.480200 13.828900 24.328600 0.000019 0.000005 1.395160 37.747900 -2.275880 22.291600 -0.000001 0.000005 -0.166673 4.771630 11.799500 12.994500 -0.242716 -4.980390 89.704000 1.188670 -76.024800 -5.348130 -0.000001 -0.000004 -56.992400 2.456460 -8.424800 -24.328900 0.000322 -0.000009 -1.577070 -1.248150 -51.629900 -22.291500 -0.000108 -0.000004 13.203600 5.570840 -9.740960 -2.192480 -6.469440 -0.000000 178.501000 0.778912 -58.298500 39.081100 -0.000007 -0.000012 -0.085636 -0.002692 91.806900 40.985400 -0.000006 -0.000013 -4.944500 -4.699770 -64.399300 11.754300 -0.000000 0.000003 0.002403 0.068399 -13.802600 -2.192510 6.469440 -0.000001 177.546000 11.423000 176.050000 -39.081100 -0.002282 -0.040193 -0.005951 0.015279 31.193600 -40.985400 0.000008 0.000006 -7.524140 5.498070 -67.314000 -11.754300 -0.000006 -0.000006 -0.049863 -0.297270 -28.816500
0.000000 0.000000 0.000000 0.000000 0.000000 -0.000000 -3.363690 91.310400 36.507400 -93.658100 4.018380 162.329000 15.735700 0.000005 -0.000001 130.508000 84.400300 -132.258000 8.984550 -0.406207 -0.000000 0.874412 7.377170 -3.557540 16.377300 -0.000001 -0.000001 -8.012240 0.424245 0.223301 6.456720 -0.000001 -0.000000 -13.520500 -3.219940 -0.700023 12.994200 -0.242716 4.980390 -91.900500 5.169650 -69.783200 5.348090 -0.000007 -0.000001 -35.552900 -20.169800 16.891100 24.328600 0.000019 0.000005 0.000002 32.426400 -0.000003 22.291600 -0.000001 0.000005 9.907090 4.457420 17.213500 12.994500 -0.242716 -4.980390 89.986900 0.056816 -77.017000 -5.348130 -0.000001 -0.000004 -60.128600 0.197147 -9.357440 -24.328900 0.000322 -0.000009 -2.430320 -1.566550 -57.188100 -22.291500 -0.000108 -0.000004 12.147400 5.603260 -11.551500 -2.192480 -6.469440 -0.000000 177.760000 2.923980 -60.229100 39.081100 -0.000007 -0.000012 -0.005837 0.001891 72.107800 40.985400 -0.000006 -0.000013 -4.644720 -2.429150 -68.468600 11.754300 -0.000000 0.000003 0.002459 0.074941 -13.537400 -2.192510 6.469440 -0.000001 174.357000 12.774000 -179.780000 -39.081100 -0.002282 -0.040193 0.033785 -0.078384 21.239600 -40.985400 0.000008 0.000006 -3.775610 6.706490 -46.460300 -11.754300 -0.000006 -0.000006 -0.057227 -0.322652 -29.888000
0.000000 0.000000 0.000000 0.000000 0.000000 -0.000000 -2.957210 92.724900 25.858300 -91.328500 2.337540 163.457000 15.735700 0.000005 -0.000001 130.075000 83.691600 -131.053000 8.984550 -0.406207 -0.000000 1.978840 8.166800 -2.096830 16.377300 -0.000001 -0.000001 -8.194350 -0.254275 -0.086064 6.456720 -0.000001 -0.000000 -14.807900 -4.869140 -1.190450 12.994200 -0.242716 4.980390 -92.063500 5.531490 -69.504800 5.348090 -0.000007 -0.000001 -32.782900 -21.011400 17.489500 24.328600 0.000019 0.000005 0.019499 31.458500 -0.037305 22.291600 -0.000001 0.000005 19.039100 4.226320 20.916600 12.994500 -0.242716 -4.980390 89.805100 0.829879 -76.781400 -5.348130 -0.000001 -0.000004 -60.814800 0.196373 -10.996900 -24.328900 0.000322 -0.000009 -5.125660 -3.062380 -59.215300 -22.291500 -0.000108 -0.000004 11.901000 5.633470 -13.600400 -2.192480 -6.469440 -0.000000 -178.261000 3.626520 -54.654800 39.081100 -0.000007 -0.000012 -0.022970 0.019078 50.293900 40.985400 -0.000006 -0.000013 -6.823230 4.065280 -71.477400 11.754300 -0.000000 0.000003 0.002484 0.086832 -13.055300 -2.192510 6.469440 -0.000001 176.829000 10.705700 -174.643000 -39.081100 -0.002282 -0.040193 0.052351 -0.138033 19.554800 -40.985400 0.000008 0.000006 -3.398320 2.766940 -29.959700 -11.754300 -0.000006 -0.000006 -0.001553 0.190636 -8.839560
0.000000 0.000000 0.000000 0.000000 0.000000 -0.000000 -2.520040 92.602400 14.906200 -88.989500 1.751590 164.969000 15.735700 0.000005 -0.000001 130.870000 83.052000 -131.031000 8.984550 -0.406207 -0.000000 2.786600 9.091400 -0.544908 16.377300 -0.000001 -0.000001 -8.147820 -0.513624 -0.158097 6.456720 -0.000001 -0.000000 -14.422300 -5.905850 -1.736190 12.994200 -0.242716 4.980390 -92.104000 5.638630 -69.498900 5.348090 -0.000007 -0.000001 -33.035600 -21.015900 16.654100 24.328600 0.000019 0.000005 0.000093 31.343700 -0.000003 22.291600 -0.000001 0.000005 22.396400 4.205200 21.233200 12.994500 -0.242716 -4.980390 89.701300 1.333670 -77.377000 -5.348130 -0.000001 -0.000004 -62.231000 0.216710 -9.968550 -24.328900 0.000322 -0.000009 -5.793160 -3.577780 -58.397600 -22.291500 -0.000108 -0.000004 10.760100 5.632260 -13.503000 -2.192480 -6.469440 -0.000000 -176.845000 1.165390 -46.744300 39.081100 -0.000007 -0.000012 -0.067589 0.120819 29.223900 40.985400 -0.000006 -0.000013 -8.460920 11.540700 -75.205100 11.754300 -0.000000 0.000003 0.002487 0.083249 -13.200600 -2.192510 6.469440 -0.000001 -179.577000 6.522970 -173.197000 -39.081100 -0.002282 -0.040193 0.063151 -0.105184 29.639100 -40.985400 0.000008 0.000006 -3.289480 -1.477370 -28.387900 -11.754300 -0.000006 -0.000006 -0.000743 0.179360 -9.297850
0.000000 0.000000 0.000000 0.000000 0.000000 -0.000000 -2.341100 91.407900 3.483660 -88.347800 1.057760 166.974000 15.735700 0.000005 -0.000001 126.311000 82.429200 -126.210000 8.984550 -0.406207 -0.000000 4.471690 8.948290 -0.147861 16.377300 -0.000001 -0.000001 -8.364210 -0.863160 0.002965 6.456720 -0.000001 -0.000000 -14.619900 -6.020500 -1.706300 12.994200 -0.242716 4.980390 -91.970300 5.432710 -70.030800 5.348090 -0.000007 -0.000001 -36.626900 -20.920800 13.735300 24.328600 0.000019 0.000005 0.000093 29.491700 -0.000003 22.291600 -0.000001 0.000005 17.997000 4.259980 20.392300 12.994500 -0.242716 -4.980390 89.774300 1.010840 -77.412500 -5.348130 -0.000001 -0.000004 -65.605500 0.972354 -8.377200 -24.328900 0.000322 -0.000009 -5.556560 -4.091790 -53.741000 -22.291500 -0.000108 -0.000004 9.594530 5.620070 -12.616600 -2.192480 -6.469440 -0.000000 -178.207000 -1.691800 -40.293400 39.081100 -0.000007 -0.000012 -0.080620 0.224705 19.737100 40.985400 -0.000006 -0.000013 -12.524000 16.108000 -76.356200 11.754300 -0.000000 0.000003 0.002480 0.079303 -13.360500 -2.192510 6.469440 -0.000001 -178.320000 5.067040 -172.982000 -39.081100 -0.002282 -0.040193 0.105483 -0.108290 43.346600 -40.985400 0.000008 0.000006 -7.005030 -2.514620 -32.072900 -11.754300 -0.000006 -0.000006 -0.000941 0.182238 -9.180930
0.000000 0.000000 0.000000 0.000000 0.000000 -0.000000 -2.272240 89.385800 -7.913590 -89.140800 -1.624620 168.323000 15.735700 0.000005 -0.000001 116.138000 82.485000 -115.970000 8.984550 -0.406207 -0.000000 5.747070 6.601860 0.005155 16.377300 -0.000001 -0.000001 -7.752560 -1.128220 0.016111 6.456720 -0.000001 -0.000000 -15.809500 -5.289010 -1.843260 12.994200 -0.242716 4.980390 -92.190500 6.248220 -70.635700 5.348090 -0.000007 -0.000001 -40.957300 -19.942800 8.830890 24.328600 0.000019 0.000005 0.000062 29.260100 -0.000003 22.291600 -0.000001 0.000005 10.838500 4.400410 18.198700 12.994500 -0.242716 -4.980390 89.548600 1.811570 -76.011900 -5.348130 -0.000001 -0.000004 -66.877400 4.334680 -6.706390 -24.328900 0.000322 -0.000009 -5.401760 -5.172300 -46.350500 -22.291500 -0.000108 -0.000004 6.534820 5.608110 -11.835000 -2.192480 -6.469440 -0.000000 178.481000 -0.837308 -41.146200 39.081100 -0.000007 -0.000012 0.256108 -0.421851 31.262400 40.985400 -0.000006 -0.000013 0.869693 10.856900 -77.710900 11.754300 -0.000000 0.000003 0.001423 0.028962 -15.401900 -2.192510 6.469440 -0.000001 -178.601000 7.933060 -176.566000 -39.081100 -0.002282 -0.040193 0.268557 -0.160502 58.831700 -40.985400 0.000008 0.000006 -6.035540 -3.280520 -31.085900 -11.754300 -0.000006 -0.000006 -0.000838 0.180748 -9.241450
